<svg id="Layer_1" data-name="Layer 1" xmlns="http://www.w3.org/2000/svg" viewBox="0 0 300 300.2"><defs><style>.cls-1{fill:#010101;}</style></defs><title>logo-new_300x300</title><path class="cls-1" d="M0,136.47,2.85,121C13.48,62.95,63.44,11.64,125.72,1.79c76.37-12.08,134.46,32.94,158.76,81.45,8.06,16.1,12.66,33.23,14.93,51a16.21,16.21,0,0,0,.59,2.19v24.71c-.19.74-.44,1.47-.56,2.22-1.12,7.06-1.52,14.3-3.44,21.13C279.11,244.77,240.63,282.79,179.31,297c-5.4,1.25-10.91,2-16.37,3H138.82a13.31,13.31,0,0,0-2.2-.59c-12-1-23.76-3.06-34.95-7.36C48.9,271.83,15.13,234.77,2.94,179,1.76,173.74,1,168.31,0,162.94Zm6.95,1.09c7.86-8.11,17.5-13,27.65-17,24.12-9.54,49.41-13.37,75-15.8a461.09,461.09,0,0,1,58.71-1.36,353.7,353.7,0,0,1,77.81,10.76c14.12,3.65,27.74,8.4,39.45,17.44,2.45,1.89,4.76,3.94,7.14,5.88l.71-.47C289,93.17,268.91,57.71,232.81,32.6,185.65-.19,134.86-3.87,83.91,22.44c-46.12,23.84-71.4,63.32-77,115.12ZM7,163.71C13.58,217.52,41,257,89.69,280.61c51.28,24.88,113.19,15.11,156.19-23.48a149.53,149.53,0,0,0,32.74-42.68c9.78-18.77,15.5-45.07,13.91-51.44-7.15,8.36-16.56,13.08-26.42,17.13a196.57,196.57,0,0,1-38.9,11A420.48,420.48,0,0,1,141,197.83c-23.85-.49-47.56-2.19-70.89-7.27-10.12-2.2-20.16-4.93-30.05-8A84.88,84.88,0,0,1,7,163.71Zm140.54,28.35c22-.06,41.76-1.09,61.37-3.94,17.55-2.54,35-5.84,51.59-12.27,8.24-3.18,16.36-6.61,23.16-12.44,10.16-8.71,10.17-16.71.14-25.44-8.54-7.43-18.74-11.62-29.32-15-31.06-10-63.15-13.2-95.55-14a400.94,400.94,0,0,0-79.58,5.75c-17.31,3-34.29,7.16-50.24,14.8-6.76,3.24-13.16,7.06-17.65,13.31-3.91,5.48-3.87,10.77.51,15.88a45.63,45.63,0,0,0,8.46,7.65C30,173,40.91,176.94,52.07,180.08c31.94,9,64.64,11.78,95.46,12Z" transform="translate(0 0.2)"/><path class="cls-1" d="M110.49,150a39.51,39.51,0,1,1,39.86,39.5C127.92,189.44,110.44,172.11,110.49,150Zm63-23.61c-12.06-13.31-36.38-13.22-46.81.2L150,146Zm-52.21,6.09c-5.78,10.72-6.75,21.06-1.69,31.68s13.44,16.65,25.44,19Zm34,49.95c9.46.39,21.66-9.21,25.88-19.94,4.06-10.3,2.73-24.36-2.89-29.18Z" transform="translate(0 0.2)"/></svg>